<?xml version="1.0" standalone="no"?>
<!DOCTYPE svg PUBLIC "-//W3C//DTD SVG 20010904//EN"
 "http://www.w3.org/TR/2001/REC-SVG-20010904/DTD/svg10.dtd">
<svg version="1.0" xmlns="http://www.w3.org/2000/svg"
 width="862.000000pt" height="862.000000pt" viewBox="0 0 862.000000 862.000000"
 preserveAspectRatio="xMidYMid meet">
<metadata>
Created by potrace 1.11, written by Peter Selinger 2001-2013
</metadata>
<g transform="translate(0.000000,862.000000) scale(0.100000,-0.100000)"
fill="#000000" stroke="none">
<path d="M4199 7896 c-2 -2 -67 -6 -144 -10 -77 -3 -156 -8 -175 -11 -19 -2
-56 -7 -83 -10 -26 -3 -71 -10 -100 -16 -74 -15 -89 -18 -117 -22 -14 -3 -45
-10 -70 -17 -25 -7 -52 -14 -60 -15 -73 -17 -274 -84 -385 -130 -249 -102
-590 -301 -693 -403 -176 -176 -56 -485 193 -497 89 -5 157 21 274 104 56 39
103 71 105 71 3 0 28 16 58 35 179 119 504 252 743 304 90 20 131 27 288 46
64 8 310 8 372 0 323 -39 570 -123 818 -276 287 -178 561 -473 710 -764 95
-185 176 -415 233 -657 9 -40 14 -56 37 -133 47 -153 83 -229 170 -353 31 -46
57 -85 57 -87 0 -4 172 -245 200 -279 8 -11 56 -66 105 -123 124 -143 147
-180 147 -238 0 -72 -39 -139 -149 -254 -114 -120 -134 -155 -128 -226 6 -74
16 -99 89 -219 56 -94 66 -116 66 -156 0 -26 -7 -61 -16 -79 -18 -35 -78 -84
-134 -107 l-35 -15 27 -22 c14 -12 51 -40 82 -61 31 -22 59 -50 62 -62 8 -32
-19 -76 -65 -108 -61 -43 -94 -97 -94 -155 1 -50 17 -88 101 -242 88 -160 67
-277 -56 -309 -29 -8 -132 -14 -267 -15 -330 -4 -444 -17 -586 -68 -62 -22
-81 -32 -161 -85 -45 -30 -150 -142 -195 -209 -7 -10 -35 -51 -63 -91 -27 -41
-50 -75 -50 -77 0 -2 -24 -43 -53 -92 -126 -206 -270 -518 -356 -768 -32 -93
-81 -271 -81 -292 0 -10 72 -13 324 -13 301 0 325 1 330 18 2 9 16 68 31 131
15 62 31 124 36 138 5 13 11 34 13 46 11 53 81 240 124 332 82 176 176 327
292 474 55 70 165 120 295 136 28 4 172 8 320 10 288 3 302 5 410 36 140 42
208 92 252 188 47 99 23 242 -77 454 -22 48 -43 100 -46 115 -7 38 24 83 93
133 90 65 122 99 129 137 14 72 -24 135 -123 206 -29 21 -53 43 -53 49 0 7 19
23 41 37 93 57 152 141 142 203 -6 37 -34 95 -75 155 -65 95 -88 189 -66 271
14 50 34 70 183 181 179 133 223 186 226 272 1 27 -6 57 -19 81 -11 21 -121
140 -243 265 -240 244 -338 354 -440 497 -107 150 -148 242 -256 580 -139 438
-198 596 -294 796 -98 202 -193 333 -369 509 -455 454 -1033 715 -1653 746
-72 3 -135 8 -138 10 -3 2 -8 2 -10 0z"/>
<path d="M2129 6835 c-2 -1 -24 -6 -48 -9 -43 -6 -111 -26 -121 -36 -3 -3 -23
-14 -45 -25 -70 -35 -166 -136 -234 -247 -75 -120 -191 -344 -245 -473 -60
-144 -139 -393 -162 -510 -2 -11 -6 -31 -9 -45 -5 -24 -21 -113 -30 -165 -2
-14 -7 -56 -10 -93 -4 -37 -8 -83 -11 -102 -5 -48 -5 -375 0 -425 3 -22 8 -69
11 -105 5 -56 23 -172 40 -260 47 -247 167 -588 293 -835 195 -381 440 -717
772 -1055 183 -186 240 -280 275 -449 16 -74 21 -213 10 -283 -3 -21 -7 -53
-10 -70 -22 -159 -103 -398 -250 -738 -37 -85 -74 -170 -81 -188 l-14 -32
1106 2 c975 3 1107 5 1109 18 1 8 5 44 9 80 4 36 11 81 16 100 5 19 12 50 15
68 17 102 138 419 245 648 28 58 50 108 50 110 0 2 15 36 34 76 122 267 194
485 212 648 8 73 7 212 -1 250 -3 14 -7 36 -10 49 -33 176 -133 338 -316 516
-253 246 -343 343 -445 474 -214 278 -333 512 -550 1076 -47 121 -88 229 -93
240 -5 11 -30 74 -57 140 -26 66 -57 136 -69 155 -12 19 -24 42 -27 50 -12 33
-131 180 -184 229 -125 114 -274 191 -439 227 -72 15 -280 12 -353 -6 -40 -9
-75 -20 -78 -23 -5 -5 78 -142 106 -174 5 -7 10 -15 10 -17 0 -3 17 -34 38
-68 36 -59 182 -350 182 -362 0 -3 13 -34 29 -68 110 -241 248 -718 275 -953
3 -27 8 -70 11 -95 8 -61 8 -268 1 -305 -19 -100 -27 -126 -52 -176 -27 -54
-79 -102 -128 -119 -28 -9 -47 -8 -96 4 -279 72 -614 412 -776 788 -70 163
-117 347 -131 512 -24 272 7 550 91 827 31 102 52 161 112 309 29 71 116 245
183 365 71 128 103 216 107 298 4 105 -37 182 -121 222 -43 20 -136 40 -146
30z"/>
</g>
</svg>
