<?xml version="1.0" encoding="utf-8"?>
<!-- Generator: Adobe Illustrator 24.3.0, SVG Export Plug-In . SVG Version: 6.00 Build 0)  -->
<svg version="1.1" baseProfile="tiny" id="Ebene_1" xmlns="http://www.w3.org/2000/svg" xmlns:xlink="http://www.w3.org/1999/xlink"
	 x="0px" y="0px" viewBox="0 0 56 56" overflow="visible" xml:space="preserve">
<path fill="#001E50" d="M28.1,50.6c-12.3,0-22.5-10.2-22.5-22.5c0-2.6,0.4-5,1.2-7.3l13.1,25.5c0.2,0.4,0.4,0.6,0.8,0.6
	s0.6-0.3,0.8-0.6l6.2-13.6c0.1-0.1,0.1-0.3,0.3-0.3c0.1,0,0.2,0.1,0.3,0.3l6.2,13.6c0.2,0.4,0.4,0.6,0.8,0.6c0.4,0,0.6-0.3,0.8-0.6
	l13.1-25.5c0.8,2.3,1.2,4.8,1.2,7.3C50.5,40.4,40.4,50.6,28.1,50.6z M28.1,22.2c-0.1,0-0.2-0.1-0.3-0.3l-7-15.2
	c2.3-0.8,4.7-1.2,7.3-1.2c2.6,0,5,0.4,7.3,1.2l-7,15.2C28.3,22.1,28.2,22.2,28.1,22.2z M20.7,38.6c-0.1,0-0.2-0.1-0.3-0.3l-11.4-22
	c2-3.3,4.9-6.1,8.3-8l8.1,17.5c0.2,0.4,0.4,0.4,0.6,0.4h4.2c0.3,0,0.5-0.1,0.6-0.4l8.1-17.5c3.4,1.9,6.3,4.6,8.3,8l-11.4,22
	c-0.1,0.1-0.1,0.3-0.3,0.3c-0.1,0-0.2-0.1-0.3-0.3l-4.4-9.6c-0.1-0.4-0.4-0.4-0.6-0.4H26c-0.3,0-0.5,0.1-0.6,0.4L21,38.3
	C20.9,38.5,20.8,38.6,20.7,38.6z M28.1,53.6c14.1,0,25.5-11.4,25.5-25.5c0-14.1-11.4-25.5-25.5-25.5C13.9,2.5,2.5,13.9,2.5,28.1
	C2.5,42.2,13.9,53.6,28.1,53.6z"/>
</svg>
